<svg xmlns="http://www.w3.org/2000/svg" viewBox="50 200 720 200"><defs><style>.cls-55{fill:#e74121}.cls-56{fill:#393168}</style></defs><g style="isolation:isolate"><g id="Capa_1" data-name="Capa 1"><g style="mix-blend-mode:multiply" opacity=".29" fill="#1b1514"><path d="M690.72 224.18c-42.67 0-77.25 29.82-77.25 66.6 0 23.77 14.44 44.63 36.18 56.41l-9 23L664 353.3a88.22 88.22 0 0 0 26.69 4.08c42.67 0 77.26-29.82 77.26-66.6s-34.56-66.6-77.23-66.6Z" opacity=".02"/><path d="M690.4 223.88c-42.67 0-77.26 29.82-77.26 66.6 0 23.77 14.45 44.63 36.19 56.41l-9 23L663.71 353a88.17 88.17 0 0 0 26.69 4.08c42.67 0 77.25-29.82 77.25-66.6s-34.58-66.6-77.25-66.6Z" opacity=".04"/><path d="M690.08 223.58c-42.67 0-77.26 29.82-77.26 66.6 0 23.77 14.45 44.63 36.18 56.41l-9 23 23.39-16.88a87.93 87.93 0 0 0 26.7 4.09c42.66 0 77.25-29.82 77.25-66.6s-34.6-66.62-77.26-66.62Z" opacity=".06"/><path d="M689.75 223.28c-42.66 0-77.25 29.82-77.25 66.6 0 23.77 14.44 44.63 36.18 56.41l-9 23 23.39-16.88a87.91 87.91 0 0 0 26.69 4.09c42.67 0 77.26-29.82 77.26-66.6s-34.6-66.62-77.27-66.62Z" opacity=".08"/><path d="M689.43 223c-42.67 0-77.26 29.82-77.26 66.6 0 23.77 14.45 44.63 36.19 56.41l-9 23 23.39-16.87a88.22 88.22 0 0 0 26.69 4.09c42.67 0 77.25-29.82 77.25-66.6S732.1 223 689.43 223Z" opacity=".1"/><path d="M689.11 222.68c-42.67 0-77.26 29.82-77.26 66.6 0 23.77 14.45 44.62 36.18 56.41l-9 23 23.39-16.87a88.24 88.24 0 0 0 26.7 4.09c42.66 0 77.25-29.82 77.25-66.6s-34.6-66.63-77.26-66.63Z" opacity=".12"/><path d="M688.78 222.38c-42.66 0-77.25 29.82-77.25 66.6 0 23.77 14.44 44.62 36.18 56.41l-9 23 23.39-16.87a88.22 88.22 0 0 0 26.69 4.09c42.67 0 77.26-29.82 77.26-66.6s-34.6-66.63-77.27-66.63Z" opacity=".14"/><path d="M688.46 222.08c-42.67 0-77.26 29.82-77.26 66.6 0 23.77 14.45 44.62 36.19 56.41l-9 23 23.39-16.87a88.22 88.22 0 0 0 26.69 4.09c42.67 0 77.25-29.82 77.25-66.6s-34.59-66.63-77.26-66.63Z" opacity=".16"/><path d="M688.14 221.78c-42.67 0-77.26 29.81-77.26 66.6 0 23.77 14.45 44.62 36.18 56.41l-9 23 23.39-16.87a88.24 88.24 0 0 0 26.7 4.09c42.66 0 77.25-29.82 77.25-66.6s-34.6-66.63-77.26-66.63Z" opacity=".18"/><path d="M687.81 221.48c-42.66 0-77.25 29.81-77.25 66.6 0 23.77 14.45 44.62 36.18 56.41l-9 23 23.39-16.87a88.22 88.22 0 0 0 26.69 4.09c42.67 0 77.26-29.82 77.26-66.6s-34.6-66.63-77.27-66.63Z" opacity=".2"/><path d="M687.49 221.18c-42.67 0-77.26 29.81-77.26 66.6 0 23.77 14.45 44.62 36.19 56.41l-9 23 23.39-16.87a88.22 88.22 0 0 0 26.69 4.09c42.67 0 77.26-29.82 77.26-66.6s-34.6-66.63-77.27-66.63Z" opacity=".22"/><path d="M687.17 220.88c-42.67 0-77.26 29.81-77.26 66.6 0 23.76 14.45 44.62 36.18 56.41l-9 23L660.47 350a88.24 88.24 0 0 0 26.7 4.08c42.66 0 77.25-29.81 77.25-66.59s-34.59-66.61-77.25-66.61Z" opacity=".24"/><path d="M686.84 220.58c-42.66 0-77.25 29.81-77.25 66.6 0 23.76 14.45 44.62 36.18 56.41l-9 23 23.39-16.87a88.22 88.22 0 0 0 26.69 4.08c42.67 0 77.26-29.81 77.26-66.59s-34.6-66.63-77.27-66.63Z" opacity=".25"/><path d="M686.52 220.28c-42.67 0-77.25 29.81-77.25 66.59 0 23.77 14.44 44.63 36.18 56.42l-9 23 23.39-16.87a88.22 88.22 0 0 0 26.69 4.08c42.67 0 77.26-29.81 77.26-66.6s-34.6-66.62-77.27-66.62Z" opacity=".27"/><path d="M686.2 220c-42.67 0-77.26 29.82-77.26 66.6 0 23.77 14.45 44.63 36.18 56.42l-9 23 23.39-16.87a88.24 88.24 0 0 0 26.7 4.08c42.66 0 77.25-29.81 77.25-66.6S728.86 220 686.2 220Z" opacity=".29"/><path d="M685.87 219.67c-42.66 0-77.25 29.82-77.25 66.6 0 23.77 14.45 44.63 36.18 56.42l-9 23 23.39-16.87a88.22 88.22 0 0 0 26.69 4.08c42.67 0 77.26-29.81 77.26-66.6s-34.6-66.63-77.27-66.63Z" opacity=".31"/><path d="M685.55 219.37c-42.67 0-77.25 29.82-77.25 66.6 0 23.77 14.44 44.63 36.18 56.42l-9 23 23.39-16.87a88.22 88.22 0 0 0 26.69 4.08c42.67 0 77.26-29.81 77.26-66.6s-34.6-66.63-77.27-66.63Z" opacity=".33"/><path d="M685.23 219.07c-42.67 0-77.26 29.82-77.26 66.6 0 23.77 14.45 44.63 36.18 56.42l-9 23 23.39-16.87a88.24 88.24 0 0 0 26.7 4.08c42.66 0 77.25-29.82 77.25-66.6s-34.6-66.63-77.26-66.63Z" opacity=".35"/><path d="M684.9 218.77c-42.66 0-77.25 29.82-77.25 66.6 0 23.77 14.45 44.63 36.18 56.41l-9 23 23.39-16.87A88.22 88.22 0 0 0 684.9 352c42.67 0 77.26-29.82 77.26-66.6s-34.59-66.63-77.26-66.63Z" opacity=".37"/><path d="M684.58 218.47c-42.67 0-77.25 29.82-77.25 66.6 0 23.77 14.44 44.63 36.18 56.41l-9 23 23.39-16.87a88.22 88.22 0 0 0 26.69 4.08c42.67 0 77.26-29.82 77.26-66.6s-34.6-66.62-77.27-66.62Z" opacity=".39"/><path d="M684.26 218.17c-42.67 0-77.26 29.82-77.26 66.6 0 23.77 14.45 44.63 36.18 56.41l-9 23 23.38-16.87a88.29 88.29 0 0 0 26.7 4.08c42.67 0 77.25-29.82 77.25-66.6s-34.58-66.62-77.25-66.62Z" opacity=".41"/><path d="M683.93 217.87c-42.66 0-77.25 29.82-77.25 66.6 0 23.77 14.45 44.63 36.18 56.41l-9 23L657.24 347a88.22 88.22 0 0 0 26.69 4.08c42.67 0 77.26-29.82 77.26-66.6s-34.59-66.61-77.26-66.61Z" opacity=".43"/><path d="M683.61 217.57c-42.67 0-77.25 29.82-77.25 66.6 0 23.77 14.44 44.63 36.18 56.41l-9 23 23.39-16.87a88.22 88.22 0 0 0 26.69 4.08c42.67 0 77.26-29.82 77.26-66.6s-34.6-66.62-77.27-66.62Z" opacity=".45"/><path d="M683.29 217.27c-42.67 0-77.26 29.82-77.26 66.6 0 23.77 14.45 44.63 36.19 56.41l-9 23 23.39-16.87a88.17 88.17 0 0 0 26.69 4.08c42.67 0 77.25-29.82 77.25-66.6s-34.55-66.62-77.26-66.62Z" opacity=".47"/><path d="M683 217c-42.67 0-77.26 29.82-77.26 66.6 0 23.77 14.45 44.63 36.18 56.41l-9 23 23.39-16.87a88.24 88.24 0 0 0 26.7 4.08c42.66 0 77.25-29.82 77.25-66.6S725.63 217 683 217Z" opacity=".49"/><path d="M682.64 216.67c-42.66 0-77.25 29.82-77.25 66.6 0 23.77 14.44 44.63 36.18 56.41l-9 23L656 345.79a88.22 88.22 0 0 0 26.69 4.08c42.67 0 77.26-29.82 77.26-66.6s-34.64-66.6-77.31-66.6Z" opacity=".51"/><path d="M682.32 216.37c-42.67 0-77.26 29.82-77.26 66.6 0 23.77 14.45 44.63 36.19 56.41l-9 23 23.39-16.88a87.91 87.91 0 0 0 26.69 4.09c42.67 0 77.25-29.82 77.25-66.6s-34.58-66.62-77.26-66.62Z" opacity=".53"/><path d="M682 216.07c-42.67 0-77.26 29.82-77.26 66.6 0 23.77 14.45 44.63 36.18 56.41l-9 23 23.39-16.88a87.93 87.93 0 0 0 26.7 4.09c42.66 0 77.25-29.82 77.25-66.6s-34.6-66.62-77.26-66.62Z" opacity=".55"/><path d="M681.67 215.77c-42.66 0-77.25 29.82-77.25 66.6 0 23.77 14.44 44.63 36.18 56.41l-9 23 23.4-16.9a88.22 88.22 0 0 0 26.67 4.12c42.67 0 77.26-29.82 77.26-66.6s-34.59-66.63-77.26-66.63Z" opacity=".57"/><path d="M681.35 215.47c-42.67 0-77.26 29.82-77.26 66.6 0 23.77 14.45 44.62 36.19 56.41l-9 23 23.39-16.87a88.22 88.22 0 0 0 26.69 4.09c42.67 0 77.25-29.82 77.25-66.6s-34.61-66.63-77.26-66.63Z" opacity=".59"/><path d="M681 215.17c-42.67 0-77.26 29.82-77.26 66.6 0 23.77 14.45 44.62 36.18 56.41l-9 23 23.39-16.87a88.24 88.24 0 0 0 26.7 4.09c42.66 0 77.25-29.82 77.25-66.6s-34.57-66.63-77.26-66.63Z" opacity=".61"/><path d="M680.7 214.87c-42.66 0-77.25 29.82-77.25 66.6 0 23.77 14.45 44.62 36.18 56.41l-9 23L654 344a88.22 88.22 0 0 0 26.69 4.09c42.67 0 77.26-29.82 77.26-66.6s-34.58-66.62-77.25-66.62Z" opacity=".63"/><path d="M680.38 214.57c-42.67 0-77.26 29.81-77.26 66.6 0 23.77 14.45 44.62 36.19 56.41l-9 23 23.39-16.87a88.22 88.22 0 0 0 26.69 4.09c42.67 0 77.26-29.82 77.26-66.6s-34.6-66.63-77.27-66.63Z" opacity=".65"/><path d="M680.06 214.27c-42.67 0-77.26 29.81-77.26 66.6 0 23.77 14.45 44.62 36.18 56.41l-9 23 23.39-16.87a88.24 88.24 0 0 0 26.7 4.09c42.66 0 77.25-29.82 77.25-66.6s-34.6-66.63-77.26-66.63Z" opacity=".67"/><path d="M679.73 214c-42.66 0-77.25 29.81-77.25 66.6 0 23.77 14.45 44.62 36.18 56.41l-9 23L653 343.08a88.22 88.22 0 0 0 26.69 4.09c42.67 0 77.26-29.82 77.26-66.6S722.4 214 679.73 214Z" opacity=".69"/><path d="M679.41 213.67c-42.67 0-77.25 29.81-77.25 66.6 0 23.76 14.44 44.62 36.18 56.41l-9 23 23.39-16.87a88.22 88.22 0 0 0 26.69 4.09c42.67 0 77.26-29.82 77.26-66.6s-34.6-66.63-77.27-66.63Z" opacity=".71"/><path d="M679.09 213.37c-42.67 0-77.26 29.81-77.26 66.6 0 23.76 14.45 44.62 36.18 56.41l-9 23 23.39-16.87a88.24 88.24 0 0 0 26.7 4.08c42.66 0 77.25-29.81 77.25-66.59s-34.6-66.63-77.26-66.63Z" opacity=".73"/><path d="M678.76 213.07c-42.66 0-77.25 29.81-77.25 66.59 0 23.77 14.45 44.63 36.18 56.42l-9 23 23.39-16.87a88.22 88.22 0 0 0 26.69 4.08c42.67 0 77.26-29.81 77.26-66.6s-34.6-66.62-77.27-66.62Z" opacity=".75"/><path d="M678.44 212.76c-42.67 0-77.25 29.82-77.25 66.6 0 23.77 14.44 44.63 36.18 56.42l-9 23 23.39-16.87a88.22 88.22 0 0 0 26.68 4.09c42.67 0 77.26-29.81 77.26-66.6s-34.59-66.64-77.26-66.64Z" opacity=".76"/><path d="M678.12 212.46c-42.67 0-77.26 29.82-77.26 66.6 0 23.77 14.45 44.63 36.18 56.42l-9 23 23.39-16.87a88.24 88.24 0 0 0 26.7 4.08c42.66 0 77.25-29.81 77.25-66.6s-34.6-66.63-77.26-66.63Z" opacity=".78"/><path d="M677.79 212.16c-42.66 0-77.25 29.82-77.25 66.6 0 23.77 14.45 44.63 36.18 56.42l-9 23 23.39-16.87a88.22 88.22 0 0 0 26.69 4.08c42.67 0 77.26-29.81 77.26-66.6s-34.6-66.63-77.27-66.63Z" opacity=".8"/><path d="M677.47 211.86c-42.67 0-77.25 29.82-77.25 66.6 0 23.77 14.44 44.63 36.18 56.42l-9 23L650.78 341a88.22 88.22 0 0 0 26.69 4.08c42.67 0 77.26-29.82 77.26-66.6s-34.59-66.62-77.26-66.62Z" opacity=".82"/><path d="M677.15 211.56c-42.67 0-77.26 29.82-77.26 66.6 0 23.77 14.45 44.63 36.18 56.41l-9 23 23.38-16.87a88.29 88.29 0 0 0 26.7 4.08c42.67 0 77.25-29.82 77.25-66.6s-34.58-66.62-77.25-66.62Z" opacity=".84"/><path d="M676.82 211.26c-42.66 0-77.25 29.82-77.25 66.6 0 23.77 14.45 44.63 36.18 56.41l-9 23 23.39-16.87a88.22 88.22 0 0 0 26.69 4.08c42.67 0 77.26-29.82 77.26-66.6s-34.6-66.62-77.27-66.62Z" opacity=".86"/><path d="M676.5 211c-42.67 0-77.25 29.82-77.25 66.6 0 23.77 14.44 44.63 36.18 56.41l-9 23 23.39-16.87a88.22 88.22 0 0 0 26.69 4.08c42.67 0 77.26-29.82 77.26-66.6S719.17 211 676.5 211Z" opacity=".88"/><path d="M676.18 210.66c-42.67 0-77.26 29.82-77.26 66.6 0 23.77 14.45 44.63 36.19 56.41l-9 23 23.39-16.87a88.17 88.17 0 0 0 26.69 4.08c42.67 0 77.25-29.82 77.25-66.6s-34.59-66.62-77.26-66.62Z" opacity=".9"/><path d="M675.86 210.36c-42.67 0-77.26 29.82-77.26 66.6 0 23.77 14.45 44.63 36.18 56.41l-9 23 23.39-16.87a88.24 88.24 0 0 0 26.7 4.08c42.66 0 77.25-29.82 77.25-66.6s-34.6-66.62-77.26-66.62Z" opacity=".92"/><path d="M675.53 210.06c-42.66 0-77.25 29.82-77.25 66.6 0 23.77 14.44 44.63 36.18 56.41l-9 23 23.39-16.87a88.22 88.22 0 0 0 26.69 4.08c42.67 0 77.26-29.82 77.26-66.6s-34.6-66.62-77.27-66.62Z" opacity=".94"/><path d="M675.21 209.76c-42.67 0-77.26 29.82-77.26 66.6 0 23.77 14.45 44.63 36.19 56.41l-9 23 23.39-16.87a88.22 88.22 0 0 0 26.68 4.1c42.67 0 77.25-29.82 77.25-66.6s-34.58-66.64-77.25-66.64Z" opacity=".96"/><path d="M674.89 209.46c-42.67 0-77.26 29.82-77.26 66.6 0 23.77 14.45 44.63 36.18 56.41l-9 23 23.39-16.87a88.24 88.24 0 0 0 26.7 4.08c42.66 0 77.25-29.82 77.25-66.6s-34.6-66.62-77.26-66.62Z" opacity=".98"/><path d="M674.56 209.16c-42.66 0-77.25 29.82-77.25 66.6 0 23.77 14.44 44.63 36.18 56.41l-9 23 23.39-16.88a87.91 87.91 0 0 0 26.69 4.09c42.67 0 77.26-29.82 77.26-66.6s-34.6-66.62-77.27-66.62Z"/></g><path class="cls-55" d="M674.51 209.35c-42.66 0-77.25 29.82-77.25 66.6 0 23.77 14.44 44.62 36.18 56.41l-9 23 23.39-16.87a88.22 88.22 0 0 0 26.69 4.09c42.67 0 77.26-29.82 77.26-66.6s-34.6-66.63-77.27-66.63Z"/><path class="cls-56" d="m70.44 295.5 29-62.79a1.68 1.68 0 0 1 1.58-1h.98a1.59 1.59 0 0 1 1.58 1l28.73 62.79a1.64 1.64 0 0 1-1.58 2.42h-8.12a2.67 2.67 0 0 1-2.7-1.86L115.32 286h-27.9l-4.57 10.08a2.8 2.8 0 0 1-2.7 1.86H72a1.65 1.65 0 0 1-1.56-2.44Zm40.31-19.87-9.33-20.53h-.28L92 275.63ZM169.24 231.69a31.55 31.55 0 0 1 22.57 8.67 1.75 1.75 0 0 1 .1 2.62l-5.7 5.87a1.49 1.49 0 0 1-2.33 0 22.07 22.07 0 0 0-14.36-5.5c-11.94 0-20.81 10-20.81 21.73s9 21.55 20.9 21.55a22.38 22.38 0 0 0 14.27-5.31 1.71 1.71 0 0 1 2.33 0l5.79 6a1.79 1.79 0 0 1-.09 2.52 32.06 32.06 0 0 1-22.67 9 33.58 33.58 0 1 1 0-67.16ZM232.77 231.69a31.55 31.55 0 0 1 22.57 8.67 1.75 1.75 0 0 1 .1 2.62l-5.7 5.87a1.49 1.49 0 0 1-2.33 0 22.07 22.07 0 0 0-14.36-5.5c-11.94 0-20.81 10-20.81 21.73s9 21.55 20.9 21.55a22.38 22.38 0 0 0 14.27-5.31 1.71 1.71 0 0 1 2.33 0l5.79 6a1.79 1.79 0 0 1-.09 2.52 32.06 32.06 0 0 1-22.67 9 33.58 33.58 0 1 1 0-67.16ZM267.66 234.39a1.83 1.83 0 0 1 1.77-1.77h8.67a1.84 1.84 0 0 1 1.78 1.77v61.76a1.84 1.84 0 0 1-1.78 1.77h-8.67a1.83 1.83 0 0 1-1.77-1.77ZM296.85 234.39a1.76 1.76 0 0 1 1.68-1.77h22.11a32.65 32.65 0 1 1 0 65.3h-22.11a1.76 1.76 0 0 1-1.68-1.77Zm22.67 52.15c12.13 0 21-9.14 21-21.36s-8.86-21.27-21-21.27h-10.63v42.63ZM365.7 234.39a1.77 1.77 0 0 1 1.77-1.77h38a1.77 1.77 0 0 1 1.77 1.77V242a1.77 1.77 0 0 1-1.77 1.78h-27.64v15.29h23a1.84 1.84 0 0 1 1.77 1.78v7.74a1.77 1.77 0 0 1-1.77 1.77h-23v16.33h27.61a1.77 1.77 0 0 1 1.77 1.77v7.65a1.77 1.77 0 0 1-1.77 1.77h-38a1.77 1.77 0 0 1-1.77-1.77ZM420.55 233.37a1.75 1.75 0 0 1 1.78-1.68h2.33l38.8 41.23h.1v-38.53a1.77 1.77 0 0 1 1.77-1.77h8.58a1.84 1.84 0 0 1 1.78 1.77v62.79a1.75 1.75 0 0 1-1.78 1.67h-2.24l-39-42.81h-.09v40.11a1.78 1.78 0 0 1-1.78 1.77h-8.48a1.84 1.84 0 0 1-1.78-1.77ZM501.43 243.82h-14.27a1.77 1.77 0 0 1-1.77-1.78v-7.65a1.77 1.77 0 0 1 1.77-1.77h40.77a1.77 1.77 0 0 1 1.77 1.77V242a1.77 1.77 0 0 1-1.77 1.78h-14.28v52.33a1.83 1.83 0 0 1-1.77 1.77h-8.67a1.84 1.84 0 0 1-1.78-1.77ZM539.4 234.39a1.77 1.77 0 0 1 1.77-1.77h38a1.77 1.77 0 0 1 1.77 1.77V242a1.77 1.77 0 0 1-1.77 1.78h-27.64v15.29h23a1.84 1.84 0 0 1 1.77 1.78v7.74a1.77 1.77 0 0 1-1.77 1.77h-23v16.33h27.61a1.77 1.77 0 0 1 1.77 1.77v7.65a1.77 1.77 0 0 1-1.77 1.77h-38a1.77 1.77 0 0 1-1.77-1.77Z"/><path class="cls-55" d="M70.56 311.51a.63.63 0 0 1 .63-.63h13.3a.63.63 0 0 1 .63.63v1.86a.63.63 0 0 1-.63.63H74v6.78h8.88a.65.65 0 0 1 .63.63v1.86a.63.63 0 0 1-.63.63H74v7.15h10.49a.63.63 0 0 1 .63.63v1.83a.63.63 0 0 1-.63.63h-13.3a.63.63 0 0 1-.63-.63ZM90.14 311.14a.62.62 0 0 1 .63-.59h.83l14.4 16.68v-15.72a.63.63 0 0 1 .63-.63h2.12a.66.66 0 0 1 .64.63v22.36a.63.63 0 0 1-.64.6H108l-14.47-17.15v16.19a.64.64 0 0 1-.64.63h-2.12a.65.65 0 0 1-.63-.63ZM87.05 338.42a.63.63 0 0 1 .63-.63H101a.63.63 0 0 1 .63.63v1.86a.63.63 0 0 1-.63.63H90.47v6.78h8.87a.66.66 0 0 1 .64.63v1.86a.63.63 0 0 1-.64.63h-8.87V358H101a.63.63 0 0 1 .63.63v1.83a.63.63 0 0 1-.63.63H87.68a.63.63 0 0 1-.63-.63ZM106.63 338.42a.63.63 0 0 1 .63-.63h2.19a.65.65 0 0 1 .63.63V358h9a.63.63 0 0 1 .63.63v1.83a.63.63 0 0 1-.63.63h-11.82a.63.63 0 0 1-.63-.63Z"/><path class="cls-56" d="M142.29 316.31h-13.68a1.59 1.59 0 0 1-1.6-1.59V310a1.6 1.6 0 0 1 1.6-1.6h36.09a1.6 1.6 0 0 1 1.59 1.6v4.7a1.59 1.59 0 0 1-1.59 1.59H151v49.27a1.64 1.64 0 0 1-1.59 1.59h-5.54a1.64 1.64 0 0 1-1.59-1.59ZM175.35 310a1.6 1.6 0 0 1 1.59-1.6h22.83a18.12 18.12 0 0 1 18.3 18c0 7.72-5.12 14.1-12.42 17l11.5 21.32a1.59 1.59 0 0 1-1.43 2.43h-6.55a1.55 1.55 0 0 1-1.34-.75l-11.16-22.24H184v21.4a1.64 1.64 0 0 1-1.59 1.59h-5.46a1.59 1.59 0 0 1-1.59-1.59Zm23.75 27a10.43 10.43 0 0 0 10.24-10.41 10.29 10.29 0 0 0-10.24-10h-14.94V337ZM223.27 365 249 308.51a2 2 0 0 1 1.43-.93h.84a2 2 0 0 1 1.43.93L278.33 365a1.48 1.48 0 0 1-1.43 2.18h-5.29a2 2 0 0 1-1.93-1.26l-5.2-11.49H237c-1.68 3.86-3.44 7.63-5.12 11.49a2.1 2.1 0 0 1-1.93 1.26h-5.29a1.48 1.48 0 0 1-1.39-2.18Zm38-17.79L251 324.2h-.42l-10.23 23ZM286.71 310a1.6 1.6 0 0 1 1.6-1.6h18.8c10.15 0 17.45 6.72 17.45 15.53 0 6.46-4.78 11.08-8.72 13.34 4.44 1.85 10.49 6 10.49 13.69 0 9.4-7.72 16.19-18.3 16.19h-19.72a1.59 1.59 0 0 1-1.6-1.59ZM308 359.45a8.94 8.94 0 0 0 9-9.15c0-5.12-4.87-8.81-10.32-8.81h-11.5v18Zm-1.35-25.51c5.38 0 8.65-3.95 8.65-9s-3.27-8.65-8.65-8.65h-11.38v17.63ZM331 365l25.77-56.48a1.94 1.94 0 0 1 1.42-.93h.84a2 2 0 0 1 1.43.93L386.08 365a1.48 1.48 0 0 1-1.43 2.18h-5.28a2 2 0 0 1-1.94-1.26l-5.2-11.49h-27.44c-1.68 3.86-3.45 7.63-5.12 11.49a2.12 2.12 0 0 1-1.93 1.26h-5.29A1.48 1.48 0 0 1 331 365Zm38-17.79-10.32-23h-.42l-10.24 23ZM387.83 359.79l3-3.28a1.63 1.63 0 0 1 2.68.17c1.26 1.43 3.61 3.61 6.88 3.61 4.12 0 8.48-3.19 8.48-10.57V310a1.6 1.6 0 0 1 1.6-1.6H416a1.6 1.6 0 0 1 1.59 1.6v39.61c0 11.67-7.39 18.38-17.21 18.38a16.07 16.07 0 0 1-12.75-6.12 1.77 1.77 0 0 1 .2-2.08ZM457.66 307.58a30.22 30.22 0 1 1-30.13 30.3 30.17 30.17 0 0 1 30.13-30.3Zm0 52a21.82 21.82 0 1 0-21.74-21.74 21.82 21.82 0 0 0 21.74 21.78ZM543.47 312a24.64 24.64 0 0 1 17.18 6.6 1.32 1.32 0 0 1 .07 2l-3.12 3.19c-.5.64-1.14.64-1.78 0a19.22 19.22 0 0 0-12.28-4.79c-10.15 0-17.81 8.51-17.81 18.45s7.73 18.39 17.88 18.39c5.19 0 8.81-2.06 12.21-4.69a1.31 1.31 0 0 1 1.71-.07l3.26 3.2a1.34 1.34 0 0 1-.07 1.91 24.35 24.35 0 0 1-17.25 6.89 25.56 25.56 0 1 1 0-51.11ZM570.87 314.07a1.35 1.35 0 0 1 1.35-1.35h4.68a1.4 1.4 0 0 1 1.35 1.35v41.74h19.24a1.34 1.34 0 0 1 1.35 1.34v3.91a1.35 1.35 0 0 1-1.35 1.35h-25.27a1.35 1.35 0 0 1-1.35-1.35Z"/><path class="cls-55" d="M502.26 365.42a7.67 7.67 0 0 0 7.72-7.95 7.78 7.78 0 0 0-8-7.72 8 8 0 0 0-7.54 7.74 7.89 7.89 0 0 0 7.82 7.93Z"/><path d="M674.75 296.59A10.35 10.35 0 0 1 685 306.81a10.24 10.24 0 0 1-10.21 10 10.13 10.13 0 0 1-10-10 10.25 10.25 0 0 1 9.96-10.22Zm-4.15-11.49-5.22-29.69v-12.13a2.09 2.09 0 0 1 2-2h14.92a2.09 2.09 0 0 1 2 2v11.92l-5.22 29.9a2.15 2.15 0 0 1-2 1.7h-4.47a2.15 2.15 0 0 1-2.01-1.7Z" fill="#fff"/></g></g></svg>