<svg xmlns="http://www.w3.org/2000/svg" viewBox="0 0 841.89 595.28"><defs><style>.cls-1{isolation:isolate;}.cls-2{mix-blend-mode:multiply;opacity:0.29;}.cls-10,.cls-11,.cls-12,.cls-13,.cls-14,.cls-15,.cls-16,.cls-17,.cls-18,.cls-19,.cls-20,.cls-21,.cls-22,.cls-23,.cls-24,.cls-25,.cls-26,.cls-27,.cls-28,.cls-29,.cls-3,.cls-30,.cls-31,.cls-32,.cls-33,.cls-34,.cls-35,.cls-36,.cls-37,.cls-38,.cls-39,.cls-4,.cls-40,.cls-41,.cls-42,.cls-43,.cls-44,.cls-45,.cls-46,.cls-47,.cls-48,.cls-49,.cls-5,.cls-50,.cls-51,.cls-52,.cls-53,.cls-54,.cls-6,.cls-7,.cls-8,.cls-9{fill:#1b1514;}.cls-3{opacity:0;}.cls-4{opacity:0.02;}.cls-5{opacity:0.04;}.cls-6{opacity:0.06;}.cls-7{opacity:0.08;}.cls-8{opacity:0.1;}.cls-9{opacity:0.12;}.cls-10{opacity:0.14;}.cls-11{opacity:0.16;}.cls-12{opacity:0.18;}.cls-13{opacity:0.2;}.cls-14{opacity:0.22;}.cls-15{opacity:0.24;}.cls-16{opacity:0.25;}.cls-17{opacity:0.27;}.cls-18{opacity:0.29;}.cls-19{opacity:0.31;}.cls-20{opacity:0.33;}.cls-21{opacity:0.35;}.cls-22{opacity:0.37;}.cls-23{opacity:0.39;}.cls-24{opacity:0.41;}.cls-25{opacity:0.43;}.cls-26{opacity:0.45;}.cls-27{opacity:0.47;}.cls-28{opacity:0.49;}.cls-29{opacity:0.51;}.cls-30{opacity:0.53;}.cls-31{opacity:0.55;}.cls-32{opacity:0.57;}.cls-33{opacity:0.59;}.cls-34{opacity:0.61;}.cls-35{opacity:0.63;}.cls-36{opacity:0.65;}.cls-37{opacity:0.67;}.cls-38{opacity:0.69;}.cls-39{opacity:0.71;}.cls-40{opacity:0.73;}.cls-41{opacity:0.75;}.cls-42{opacity:0.76;}.cls-43{opacity:0.78;}.cls-44{opacity:0.8;}.cls-45{opacity:0.82;}.cls-46{opacity:0.84;}.cls-47{opacity:0.86;}.cls-48{opacity:0.88;}.cls-49{opacity:0.9;}.cls-50{opacity:0.92;}.cls-51{opacity:0.94;}.cls-52{opacity:0.96;}.cls-53{opacity:0.98;}.cls-55{fill:#706f6f;}.cls-56{fill:#1d1d1b;}.cls-57{fill:#fff;}</style></defs><g class="cls-1"><g id="Capa_1" data-name="Capa 1"><g class="cls-2"><path class="cls-3" d="M691,224.48c-42.66,0-77.25,29.82-77.25,66.6,0,23.77,14.45,44.63,36.18,56.41l-9,23,23.39-16.87A88.22,88.22,0,0,0,691,357.68c42.67,0,77.26-29.82,77.26-66.6S733.71,224.48,691,224.48Z"/><path class="cls-4" d="M690.72,224.18c-42.67,0-77.25,29.82-77.25,66.6,0,23.77,14.44,44.63,36.18,56.41l-9,23L664,353.3a88.22,88.22,0,0,0,26.69,4.08c42.67,0,77.26-29.82,77.26-66.6S733.39,224.18,690.72,224.18Z"/><path class="cls-5" d="M690.4,223.88c-42.67,0-77.26,29.82-77.26,66.6,0,23.77,14.45,44.63,36.19,56.41l-9,23L663.71,353a88.17,88.17,0,0,0,26.69,4.08c42.67,0,77.25-29.82,77.25-66.6S733.07,223.88,690.4,223.88Z"/><path class="cls-6" d="M690.08,223.58c-42.67,0-77.26,29.82-77.26,66.6,0,23.77,14.45,44.63,36.18,56.41l-9,23,23.39-16.88a87.93,87.93,0,0,0,26.7,4.09c42.66,0,77.25-29.82,77.25-66.6S732.74,223.58,690.08,223.58Z"/><path class="cls-7" d="M689.75,223.28c-42.66,0-77.25,29.82-77.25,66.6,0,23.77,14.44,44.63,36.18,56.41l-9,23,23.39-16.88a87.91,87.91,0,0,0,26.69,4.09c42.67,0,77.26-29.82,77.26-66.6S732.42,223.28,689.75,223.28Z"/><path class="cls-8" d="M689.43,223c-42.67,0-77.26,29.82-77.26,66.6,0,23.77,14.45,44.63,36.19,56.41l-9,23,23.39-16.87a88.22,88.22,0,0,0,26.69,4.09c42.67,0,77.25-29.82,77.25-66.6S732.1,223,689.43,223Z"/><path class="cls-9" d="M689.11,222.68c-42.67,0-77.26,29.82-77.26,66.6,0,23.77,14.45,44.62,36.18,56.41l-9,23,23.39-16.87a88.24,88.24,0,0,0,26.7,4.09c42.66,0,77.25-29.82,77.25-66.6S731.77,222.68,689.11,222.68Z"/><path class="cls-10" d="M688.78,222.38c-42.66,0-77.25,29.82-77.25,66.6,0,23.77,14.44,44.62,36.18,56.41l-9,23,23.39-16.87a88.22,88.22,0,0,0,26.69,4.09c42.67,0,77.26-29.82,77.26-66.6S731.45,222.38,688.78,222.38Z"/><path class="cls-11" d="M688.46,222.08c-42.67,0-77.26,29.82-77.26,66.6,0,23.77,14.45,44.62,36.19,56.41l-9,23,23.39-16.87a88.22,88.22,0,0,0,26.69,4.09c42.67,0,77.25-29.82,77.25-66.6S731.13,222.08,688.46,222.08Z"/><path class="cls-12" d="M688.14,221.78c-42.67,0-77.26,29.81-77.26,66.6,0,23.77,14.45,44.62,36.18,56.41l-9,23,23.39-16.87a88.24,88.24,0,0,0,26.7,4.09c42.66,0,77.25-29.82,77.25-66.6S730.8,221.78,688.14,221.78Z"/><path class="cls-13" d="M687.81,221.48c-42.66,0-77.25,29.81-77.25,66.6,0,23.77,14.45,44.62,36.18,56.41l-9,23,23.39-16.87a88.22,88.22,0,0,0,26.69,4.09c42.67,0,77.26-29.82,77.26-66.6S730.48,221.48,687.81,221.48Z"/><path class="cls-14" d="M687.49,221.18c-42.67,0-77.26,29.81-77.26,66.6,0,23.77,14.45,44.62,36.19,56.41l-9,23,23.39-16.87a88.22,88.22,0,0,0,26.69,4.09c42.67,0,77.26-29.82,77.26-66.6S730.16,221.18,687.49,221.18Z"/><path class="cls-15" d="M687.17,220.88c-42.67,0-77.26,29.81-77.26,66.6,0,23.76,14.45,44.62,36.18,56.41l-9,23L660.47,350a88.24,88.24,0,0,0,26.7,4.08c42.66,0,77.25-29.81,77.25-66.59S729.83,220.88,687.17,220.88Z"/><path class="cls-16" d="M686.84,220.58c-42.66,0-77.25,29.81-77.25,66.6,0,23.76,14.45,44.62,36.18,56.41l-9,23,23.39-16.87a88.22,88.22,0,0,0,26.69,4.08c42.67,0,77.26-29.81,77.26-66.59S729.51,220.58,686.84,220.58Z"/><path class="cls-17" d="M686.52,220.28c-42.67,0-77.25,29.81-77.25,66.59,0,23.77,14.44,44.63,36.18,56.42l-9,23,23.39-16.87a88.22,88.22,0,0,0,26.69,4.08c42.67,0,77.26-29.81,77.26-66.6S729.19,220.28,686.52,220.28Z"/><path class="cls-18" d="M686.2,220c-42.67,0-77.26,29.82-77.26,66.6,0,23.77,14.45,44.63,36.18,56.42l-9,23,23.39-16.87a88.24,88.24,0,0,0,26.7,4.08c42.66,0,77.25-29.81,77.25-66.6S728.86,220,686.2,220Z"/><path class="cls-19" d="M685.87,219.67c-42.66,0-77.25,29.82-77.25,66.6,0,23.77,14.45,44.63,36.18,56.42l-9,23,23.39-16.87a88.22,88.22,0,0,0,26.69,4.08c42.67,0,77.26-29.81,77.26-66.6S728.54,219.67,685.87,219.67Z"/><path class="cls-20" d="M685.55,219.37c-42.67,0-77.25,29.82-77.25,66.6,0,23.77,14.44,44.63,36.18,56.42l-9,23,23.39-16.87a88.22,88.22,0,0,0,26.69,4.08c42.67,0,77.26-29.81,77.26-66.6S728.22,219.37,685.55,219.37Z"/><path class="cls-21" d="M685.23,219.07c-42.67,0-77.26,29.82-77.26,66.6,0,23.77,14.45,44.63,36.18,56.42l-9,23,23.39-16.87a88.24,88.24,0,0,0,26.7,4.08c42.66,0,77.25-29.82,77.25-66.6S727.89,219.07,685.23,219.07Z"/><path class="cls-22" d="M684.9,218.77c-42.66,0-77.25,29.82-77.25,66.6,0,23.77,14.45,44.63,36.18,56.41l-9,23,23.39-16.87A88.22,88.22,0,0,0,684.9,352c42.67,0,77.26-29.82,77.26-66.6S727.57,218.77,684.9,218.77Z"/><path class="cls-23" d="M684.58,218.47c-42.67,0-77.25,29.82-77.25,66.6,0,23.77,14.44,44.63,36.18,56.41l-9,23,23.39-16.87a88.22,88.22,0,0,0,26.69,4.08c42.67,0,77.26-29.82,77.26-66.6S727.25,218.47,684.58,218.47Z"/><path class="cls-24" d="M684.26,218.17c-42.67,0-77.26,29.82-77.26,66.6,0,23.77,14.45,44.63,36.18,56.41l-9,23,23.38-16.87a88.29,88.29,0,0,0,26.7,4.08c42.67,0,77.25-29.82,77.25-66.6S726.93,218.17,684.26,218.17Z"/><path class="cls-25" d="M683.93,217.87c-42.66,0-77.25,29.82-77.25,66.6,0,23.77,14.45,44.63,36.18,56.41l-9,23L657.24,347a88.22,88.22,0,0,0,26.69,4.08c42.67,0,77.26-29.82,77.26-66.6S726.6,217.87,683.93,217.87Z"/><path class="cls-26" d="M683.61,217.57c-42.67,0-77.25,29.82-77.25,66.6,0,23.77,14.44,44.63,36.18,56.41l-9,23,23.39-16.87a88.22,88.22,0,0,0,26.69,4.08c42.67,0,77.26-29.82,77.26-66.6S726.28,217.57,683.61,217.57Z"/><path class="cls-27" d="M683.29,217.27c-42.67,0-77.26,29.82-77.26,66.6,0,23.77,14.45,44.63,36.19,56.41l-9,23,23.39-16.87a88.17,88.17,0,0,0,26.69,4.08c42.67,0,77.25-29.82,77.25-66.6S726,217.27,683.29,217.27Z"/><path class="cls-28" d="M683,217c-42.67,0-77.26,29.82-77.26,66.6,0,23.77,14.45,44.63,36.18,56.41l-9,23,23.39-16.87a88.24,88.24,0,0,0,26.7,4.08c42.66,0,77.25-29.82,77.25-66.6S725.63,217,683,217Z"/><path class="cls-29" d="M682.64,216.67c-42.66,0-77.25,29.82-77.25,66.6,0,23.77,14.44,44.63,36.18,56.41l-9,23L656,345.79a88.22,88.22,0,0,0,26.69,4.08c42.67,0,77.26-29.82,77.26-66.6S725.31,216.67,682.64,216.67Z"/><path class="cls-30" d="M682.32,216.37c-42.67,0-77.26,29.82-77.26,66.6,0,23.77,14.45,44.63,36.19,56.41l-9,23,23.39-16.88a87.91,87.91,0,0,0,26.69,4.09c42.67,0,77.25-29.82,77.25-66.6S725,216.37,682.32,216.37Z"/><path class="cls-31" d="M682,216.07c-42.67,0-77.26,29.82-77.26,66.6,0,23.77,14.45,44.63,36.18,56.41l-9,23,23.39-16.88a87.93,87.93,0,0,0,26.7,4.09c42.66,0,77.25-29.82,77.25-66.6S724.66,216.07,682,216.07Z"/><path class="cls-32" d="M681.67,215.77c-42.66,0-77.25,29.82-77.25,66.6,0,23.77,14.44,44.63,36.18,56.41l-9,23L655,344.88A88.22,88.22,0,0,0,681.67,349c42.67,0,77.26-29.82,77.26-66.6S724.34,215.77,681.67,215.77Z"/><path class="cls-33" d="M681.35,215.47c-42.67,0-77.26,29.82-77.26,66.6,0,23.77,14.45,44.62,36.19,56.41l-9,23,23.39-16.87a88.22,88.22,0,0,0,26.69,4.09c42.67,0,77.25-29.82,77.25-66.6S724,215.47,681.35,215.47Z"/><path class="cls-34" d="M681,215.17c-42.67,0-77.26,29.82-77.26,66.6,0,23.77,14.45,44.62,36.18,56.41l-9,23,23.39-16.87a88.24,88.24,0,0,0,26.7,4.09c42.66,0,77.25-29.82,77.25-66.6S723.69,215.17,681,215.17Z"/><path class="cls-35" d="M680.7,214.87c-42.66,0-77.25,29.82-77.25,66.6,0,23.77,14.45,44.62,36.18,56.41l-9,23L654,344a88.22,88.22,0,0,0,26.69,4.09c42.67,0,77.26-29.82,77.26-66.6S723.37,214.87,680.7,214.87Z"/><path class="cls-36" d="M680.38,214.57c-42.67,0-77.26,29.81-77.26,66.6,0,23.77,14.45,44.62,36.19,56.41l-9,23,23.39-16.87a88.22,88.22,0,0,0,26.69,4.09c42.67,0,77.26-29.82,77.26-66.6S723.05,214.57,680.38,214.57Z"/><path class="cls-37" d="M680.06,214.27c-42.67,0-77.26,29.81-77.26,66.6,0,23.77,14.45,44.62,36.18,56.41l-9,23,23.39-16.87a88.24,88.24,0,0,0,26.7,4.09c42.66,0,77.25-29.82,77.25-66.6S722.72,214.27,680.06,214.27Z"/><path class="cls-38" d="M679.73,214c-42.66,0-77.25,29.81-77.25,66.6,0,23.77,14.45,44.62,36.18,56.41l-9,23L653,343.08a88.22,88.22,0,0,0,26.69,4.09c42.67,0,77.26-29.82,77.26-66.6S722.4,214,679.73,214Z"/><path class="cls-39" d="M679.41,213.67c-42.67,0-77.25,29.81-77.25,66.6,0,23.76,14.44,44.62,36.18,56.41l-9,23,23.39-16.87a88.22,88.22,0,0,0,26.69,4.09c42.67,0,77.26-29.82,77.26-66.6S722.08,213.67,679.41,213.67Z"/><path class="cls-40" d="M679.09,213.37c-42.67,0-77.26,29.81-77.26,66.6,0,23.76,14.45,44.62,36.18,56.41l-9,23,23.39-16.87a88.24,88.24,0,0,0,26.7,4.08c42.66,0,77.25-29.81,77.25-66.59S721.75,213.37,679.09,213.37Z"/><path class="cls-41" d="M678.76,213.07c-42.66,0-77.25,29.81-77.25,66.59,0,23.77,14.45,44.63,36.18,56.42l-9,23,23.39-16.87a88.22,88.22,0,0,0,26.69,4.08c42.67,0,77.26-29.81,77.26-66.6S721.43,213.07,678.76,213.07Z"/><path class="cls-42" d="M678.44,212.76c-42.67,0-77.25,29.82-77.25,66.6,0,23.77,14.44,44.63,36.18,56.42l-9,23,23.39-16.87A88.22,88.22,0,0,0,678.44,346c42.67,0,77.26-29.81,77.26-66.6S721.11,212.76,678.44,212.76Z"/><path class="cls-43" d="M678.12,212.46c-42.67,0-77.26,29.82-77.26,66.6,0,23.77,14.45,44.63,36.18,56.42l-9,23,23.39-16.87a88.24,88.24,0,0,0,26.7,4.08c42.66,0,77.25-29.81,77.25-66.6S720.78,212.46,678.12,212.46Z"/><path class="cls-44" d="M677.79,212.16c-42.66,0-77.25,29.82-77.25,66.6,0,23.77,14.45,44.63,36.18,56.42l-9,23,23.39-16.87a88.22,88.22,0,0,0,26.69,4.08c42.67,0,77.26-29.81,77.26-66.6S720.46,212.16,677.79,212.16Z"/><path class="cls-45" d="M677.47,211.86c-42.67,0-77.25,29.82-77.25,66.6,0,23.77,14.44,44.63,36.18,56.42l-9,23L650.78,341a88.22,88.22,0,0,0,26.69,4.08c42.67,0,77.26-29.82,77.26-66.6S720.14,211.86,677.47,211.86Z"/><path class="cls-46" d="M677.15,211.56c-42.67,0-77.26,29.82-77.26,66.6,0,23.77,14.45,44.63,36.18,56.41l-9,23,23.38-16.87a88.29,88.29,0,0,0,26.7,4.08c42.67,0,77.25-29.82,77.25-66.6S719.82,211.56,677.15,211.56Z"/><path class="cls-47" d="M676.82,211.26c-42.66,0-77.25,29.82-77.25,66.6,0,23.77,14.45,44.63,36.18,56.41l-9,23,23.39-16.87a88.22,88.22,0,0,0,26.69,4.08c42.67,0,77.26-29.82,77.26-66.6S719.49,211.26,676.82,211.26Z"/><path class="cls-48" d="M676.5,211c-42.67,0-77.25,29.82-77.25,66.6,0,23.77,14.44,44.63,36.18,56.41l-9,23,23.39-16.87a88.22,88.22,0,0,0,26.69,4.08c42.67,0,77.26-29.82,77.26-66.6S719.17,211,676.5,211Z"/><path class="cls-49" d="M676.18,210.66c-42.67,0-77.26,29.82-77.26,66.6,0,23.77,14.45,44.63,36.19,56.41l-9,23,23.39-16.87a88.17,88.17,0,0,0,26.69,4.08c42.67,0,77.25-29.82,77.25-66.6S718.85,210.66,676.18,210.66Z"/><path class="cls-50" d="M675.86,210.36c-42.67,0-77.26,29.82-77.26,66.6,0,23.77,14.45,44.63,36.18,56.41l-9,23,23.39-16.87a88.24,88.24,0,0,0,26.7,4.08c42.66,0,77.25-29.82,77.25-66.6S718.52,210.36,675.86,210.36Z"/><path class="cls-51" d="M675.53,210.06c-42.66,0-77.25,29.82-77.25,66.6,0,23.77,14.44,44.63,36.18,56.41l-9,23,23.39-16.87a88.22,88.22,0,0,0,26.69,4.08c42.67,0,77.26-29.82,77.26-66.6S718.2,210.06,675.53,210.06Z"/><path class="cls-52" d="M675.21,209.76c-42.67,0-77.26,29.82-77.26,66.6,0,23.77,14.45,44.63,36.19,56.41l-9,23,23.39-16.87A88.22,88.22,0,0,0,675.21,343c42.67,0,77.25-29.82,77.25-66.6S717.88,209.76,675.21,209.76Z"/><path class="cls-53" d="M674.89,209.46c-42.67,0-77.26,29.82-77.26,66.6,0,23.77,14.45,44.63,36.18,56.41l-9,23,23.39-16.87a88.24,88.24,0,0,0,26.7,4.08c42.66,0,77.25-29.82,77.25-66.6S717.55,209.46,674.89,209.46Z"/><path class="cls-54" d="M674.56,209.16c-42.66,0-77.25,29.82-77.25,66.6,0,23.77,14.44,44.63,36.18,56.41l-9,23,23.39-16.88a87.91,87.91,0,0,0,26.69,4.09c42.67,0,77.26-29.82,77.26-66.6S717.23,209.16,674.56,209.16Z"/></g><path class="cls-55" d="M674.51,209.35c-42.66,0-77.25,29.82-77.25,66.6,0,23.77,14.44,44.62,36.18,56.41l-9,23,23.39-16.87a88.22,88.22,0,0,0,26.69,4.09c42.67,0,77.26-29.82,77.26-66.6S717.18,209.35,674.51,209.35Z"/><path class="cls-56" d="M70.44,295.5l29-62.79a1.68,1.68,0,0,1,1.58-1H102a1.59,1.59,0,0,1,1.58,1l28.73,62.79a1.64,1.64,0,0,1-1.58,2.42h-8.12a2.67,2.67,0,0,1-2.7-1.86L115.32,286H87.42l-4.57,10.08a2.8,2.8,0,0,1-2.7,1.86H72A1.65,1.65,0,0,1,70.44,295.5Zm40.31-19.87-9.33-20.53h-.28L92,275.63Z"/><path class="cls-56" d="M169.24,231.69a31.55,31.55,0,0,1,22.57,8.67,1.75,1.75,0,0,1,.1,2.62l-5.7,5.87a1.49,1.49,0,0,1-2.33,0,22.07,22.07,0,0,0-14.36-5.5c-11.94,0-20.81,10-20.81,21.73s9,21.55,20.9,21.55a22.38,22.38,0,0,0,14.27-5.31,1.71,1.71,0,0,1,2.33,0l5.79,6a1.79,1.79,0,0,1-.09,2.52,32.06,32.06,0,0,1-22.67,9,33.58,33.58,0,1,1,0-67.16Z"/><path class="cls-56" d="M232.77,231.69a31.55,31.55,0,0,1,22.57,8.67,1.75,1.75,0,0,1,.1,2.62l-5.7,5.87a1.49,1.49,0,0,1-2.33,0,22.07,22.07,0,0,0-14.36-5.5c-11.94,0-20.81,10-20.81,21.73s9,21.55,20.9,21.55a22.38,22.38,0,0,0,14.27-5.31,1.71,1.71,0,0,1,2.33,0l5.79,6a1.79,1.79,0,0,1-.09,2.52,32.06,32.06,0,0,1-22.67,9,33.58,33.58,0,1,1,0-67.16Z"/><path class="cls-56" d="M267.66,234.39a1.83,1.83,0,0,1,1.77-1.77h8.67a1.84,1.84,0,0,1,1.78,1.77v61.76a1.84,1.84,0,0,1-1.78,1.77h-8.67a1.83,1.83,0,0,1-1.77-1.77Z"/><path class="cls-56" d="M296.85,234.39a1.76,1.76,0,0,1,1.68-1.77h22.11a32.65,32.65,0,1,1,0,65.3H298.53a1.76,1.76,0,0,1-1.68-1.77Zm22.67,52.15c12.13,0,21-9.14,21-21.36s-8.86-21.27-21-21.27H308.89v42.63Z"/><path class="cls-56" d="M365.7,234.39a1.77,1.77,0,0,1,1.77-1.77h38a1.77,1.77,0,0,1,1.77,1.77V242a1.77,1.77,0,0,1-1.77,1.78H377.83v15.29h23a1.84,1.84,0,0,1,1.77,1.78v7.74a1.77,1.77,0,0,1-1.77,1.77h-23v16.33h27.61a1.77,1.77,0,0,1,1.77,1.77v7.65a1.77,1.77,0,0,1-1.77,1.77h-38a1.77,1.77,0,0,1-1.77-1.77Z"/><path class="cls-56" d="M420.55,233.37a1.75,1.75,0,0,1,1.78-1.68h2.33l38.8,41.23h.1V234.39a1.77,1.77,0,0,1,1.77-1.77h8.58a1.84,1.84,0,0,1,1.78,1.77v62.79a1.75,1.75,0,0,1-1.78,1.67h-2.24l-39-42.81h-.09v40.11a1.78,1.78,0,0,1-1.78,1.77h-8.48a1.84,1.84,0,0,1-1.78-1.77Z"/><path class="cls-56" d="M501.43,243.82H487.16a1.77,1.77,0,0,1-1.77-1.78v-7.65a1.77,1.77,0,0,1,1.77-1.77h40.77a1.77,1.77,0,0,1,1.77,1.77V242a1.77,1.77,0,0,1-1.77,1.78H513.65v52.33a1.83,1.83,0,0,1-1.77,1.77h-8.67a1.84,1.84,0,0,1-1.78-1.77Z"/><path class="cls-56" d="M539.4,234.39a1.77,1.77,0,0,1,1.77-1.77h38a1.77,1.77,0,0,1,1.77,1.77V242a1.77,1.77,0,0,1-1.77,1.78H551.53v15.29h23a1.84,1.84,0,0,1,1.77,1.78v7.74a1.77,1.77,0,0,1-1.77,1.77h-23v16.33h27.61a1.77,1.77,0,0,1,1.77,1.77v7.65a1.77,1.77,0,0,1-1.77,1.77h-38a1.77,1.77,0,0,1-1.77-1.77Z"/><path class="cls-55" d="M70.56,311.51a.63.63,0,0,1,.63-.63h13.3a.63.63,0,0,1,.63.63v1.86a.63.63,0,0,1-.63.63H74v6.78h8.88a.65.65,0,0,1,.63.63v1.86a.63.63,0,0,1-.63.63H74v7.15H84.49a.63.63,0,0,1,.63.63v1.83a.63.63,0,0,1-.63.63H71.19a.63.63,0,0,1-.63-.63Z"/><path class="cls-55" d="M90.14,311.14a.62.62,0,0,1,.63-.59h.83L106,327.23h0V311.51a.63.63,0,0,1,.63-.63h2.12a.66.66,0,0,1,.64.63v22.36a.63.63,0,0,1-.64.6H108L93.53,317.32h0v16.19a.64.64,0,0,1-.64.63H90.77a.65.65,0,0,1-.63-.63Z"/><path class="cls-55" d="M87.05,338.42a.63.63,0,0,1,.63-.63H101a.63.63,0,0,1,.63.63v1.86a.63.63,0,0,1-.63.63H90.47v6.78h8.87a.66.66,0,0,1,.64.63v1.86a.63.63,0,0,1-.64.63H90.47V358H101a.63.63,0,0,1,.63.63v1.83a.63.63,0,0,1-.63.63H87.68a.63.63,0,0,1-.63-.63Z"/><path class="cls-55" d="M106.63,338.42a.63.63,0,0,1,.63-.63h2.19a.65.65,0,0,1,.63.63V358h9a.63.63,0,0,1,.63.63v1.83a.63.63,0,0,1-.63.63H107.26a.63.63,0,0,1-.63-.63Z"/><path class="cls-56" d="M142.29,316.31H128.61a1.59,1.59,0,0,1-1.6-1.59V310a1.6,1.6,0,0,1,1.6-1.6H164.7a1.6,1.6,0,0,1,1.59,1.6v4.7a1.59,1.59,0,0,1-1.59,1.59H151v49.27a1.64,1.64,0,0,1-1.59,1.59h-5.54a1.64,1.64,0,0,1-1.59-1.59Z"/><path class="cls-56" d="M175.35,310a1.6,1.6,0,0,1,1.59-1.6h22.83a18.12,18.12,0,0,1,18.3,18c0,7.72-5.12,14.1-12.42,17l11.5,21.32a1.59,1.59,0,0,1-1.43,2.43h-6.55a1.55,1.55,0,0,1-1.34-.75l-11.16-22.24H184v21.4a1.64,1.64,0,0,1-1.59,1.59h-5.46a1.59,1.59,0,0,1-1.59-1.59ZM199.1,337a10.43,10.43,0,0,0,10.24-10.41,10.29,10.29,0,0,0-10.24-10H184.16V337Z"/><path class="cls-56" d="M223.27,365,249,308.51a2,2,0,0,1,1.43-.93h.84a2,2,0,0,1,1.43.93L278.33,365a1.48,1.48,0,0,1-1.43,2.18h-5.29a2,2,0,0,1-1.93-1.26l-5.2-11.49H237c-1.68,3.86-3.44,7.63-5.12,11.49a2.1,2.1,0,0,1-1.93,1.26h-5.29A1.48,1.48,0,0,1,223.27,365Zm38-17.79L251,324.2h-.42l-10.23,23Z"/><path class="cls-56" d="M286.71,310a1.6,1.6,0,0,1,1.6-1.6h18.8c10.15,0,17.45,6.72,17.45,15.53,0,6.46-4.78,11.08-8.72,13.34,4.44,1.85,10.49,6,10.49,13.69,0,9.4-7.72,16.19-18.3,16.19H288.31a1.59,1.59,0,0,1-1.6-1.59ZM308,359.45A8.94,8.94,0,0,0,317,350.3c0-5.12-4.87-8.81-10.32-8.81h-11.5v18Zm-1.35-25.51c5.38,0,8.65-3.95,8.65-9s-3.27-8.65-8.65-8.65H295.27v17.63Z"/><path class="cls-56" d="M331,365l25.77-56.48a1.94,1.94,0,0,1,1.42-.93h.84a2,2,0,0,1,1.43.93L386.08,365a1.48,1.48,0,0,1-1.43,2.18h-5.28a2,2,0,0,1-1.94-1.26l-5.2-11.49H344.79c-1.68,3.86-3.45,7.63-5.12,11.49a2.12,2.12,0,0,1-1.93,1.26h-5.29A1.48,1.48,0,0,1,331,365Zm38-17.79-10.32-23h-.42l-10.24,23Z"/><path class="cls-56" d="M387.83,359.79l3-3.28a1.63,1.63,0,0,1,2.68.17c1.26,1.43,3.61,3.61,6.88,3.61,4.12,0,8.48-3.19,8.48-10.57V310a1.6,1.6,0,0,1,1.6-1.6H416a1.6,1.6,0,0,1,1.59,1.6v39.61c0,11.67-7.39,18.38-17.21,18.38a16.07,16.07,0,0,1-12.75-6.12A1.77,1.77,0,0,1,387.83,359.79Z"/><path class="cls-56" d="M457.66,307.58a30.22,30.22,0,1,1-30.13,30.3A30.17,30.17,0,0,1,457.66,307.58Zm0,52a21.82,21.82,0,1,0-21.74-21.74A21.82,21.82,0,0,0,457.66,359.62Z"/><path class="cls-56" d="M543.47,312a24.64,24.64,0,0,1,17.18,6.6,1.32,1.32,0,0,1,.07,2l-3.12,3.19c-.5.64-1.14.64-1.78,0A19.22,19.22,0,0,0,543.54,319c-10.15,0-17.81,8.51-17.81,18.45s7.73,18.39,17.88,18.39c5.19,0,8.81-2.06,12.21-4.69a1.31,1.31,0,0,1,1.71-.07l3.26,3.2a1.34,1.34,0,0,1-.07,1.91,24.35,24.35,0,0,1-17.25,6.89,25.56,25.56,0,1,1,0-51.11Z"/><path class="cls-56" d="M570.87,314.07a1.35,1.35,0,0,1,1.35-1.35h4.68a1.4,1.4,0,0,1,1.35,1.35v41.74h19.24a1.34,1.34,0,0,1,1.35,1.34v3.91a1.35,1.35,0,0,1-1.35,1.35H572.22a1.35,1.35,0,0,1-1.35-1.35Z"/><path class="cls-55" d="M502.26,365.42a7.67,7.67,0,0,0,7.72-7.95,7.78,7.78,0,0,0-8-7.72,8,8,0,0,0-7.54,7.74A7.89,7.89,0,0,0,502.26,365.42Z"/><path class="cls-57" d="M674.75,296.59A10.35,10.35,0,0,1,685,306.81a10.24,10.24,0,0,1-10.21,10,10.13,10.13,0,0,1-10-10A10.25,10.25,0,0,1,674.75,296.59ZM670.6,285.1l-5.22-29.69V243.28a2.09,2.09,0,0,1,2-2H682.3a2.09,2.09,0,0,1,2,2V255.2l-5.22,29.9a2.15,2.15,0,0,1-2,1.7h-4.47A2.15,2.15,0,0,1,670.6,285.1Z"/></g></g></svg>